<svg width="20" height="20" viewBox="0 0 20 20" fill="none" xmlns="http://www.w3.org/2000/svg">
<path d="M17.1001 12.6749L15.6001 11.1665V7.44987C15.6201 6.06972 15.14 4.72896 14.2486 3.67515C13.3571 2.62134 12.1145 1.92565 10.7501 1.71654C9.95832 1.61226 9.15336 1.67805 8.38898 1.90952C7.6246 2.14098 6.91837 2.53281 6.31741 3.05884C5.71646 3.58487 5.2346 4.23302 4.90398 4.96003C4.57337 5.68705 4.4016 6.47621 4.40014 7.27487V11.1665L2.90014 12.6749C2.71173 12.8664 2.58396 13.1093 2.53281 13.373C2.48166 13.6368 2.50939 13.9098 2.61254 14.1579C2.71569 14.406 2.88968 14.6182 3.11277 14.7679C3.33585 14.9177 3.59813 14.9984 3.86681 14.9999H6.66681V15.2832C6.70573 16.1292 7.07844 16.9253 7.70325 17.497C8.32806 18.0687 9.15402 18.3694 10.0001 18.3332C10.8463 18.3694 11.6722 18.0687 12.297 17.497C12.9218 16.9253 13.2946 16.1292 13.3335 15.2832V14.9999H16.1335C16.4022 14.9984 16.6644 14.9177 16.8875 14.7679C17.1106 14.6182 17.2846 14.406 17.3877 14.1579C17.4909 13.9098 17.5186 13.6368 17.4675 13.373C17.4163 13.1093 17.2886 12.8664 17.1001 12.6749ZM11.6668 15.2832C11.6206 15.684 11.4215 16.0516 11.111 16.3093C10.8006 16.567 10.4026 16.6949 10.0001 16.6665C9.59766 16.6949 9.19973 16.567 8.88925 16.3093C8.57877 16.0516 8.37969 15.684 8.33348 15.2832V14.9999H11.6668V15.2832ZM4.59181 13.3332L5.57514 12.3499C5.73112 12.1948 5.85486 12.0104 5.93924 11.8073C6.02363 11.6043 6.06698 11.3865 6.06681 11.1665V7.27487C6.06726 6.71271 6.18796 6.15714 6.4208 5.64546C6.65365 5.13378 6.99325 4.67783 7.41681 4.3082C7.83466 3.92961 8.32979 3.64633 8.86793 3.47798C9.40607 3.30963 9.97436 3.26023 10.5335 3.3332C11.4972 3.48968 12.372 3.98905 12.9967 4.73935C13.6215 5.48966 13.9541 6.4404 13.9335 7.41654V11.1665C13.9322 11.3859 13.9742 11.6033 14.0572 11.8064C14.1401 12.0094 14.2623 12.1941 14.4168 12.3499L15.4085 13.3332H4.59181Z" fill="#859097"/>
</svg>
