<svg width="20" height="20" viewBox="0 0 20 20" fill="none" xmlns="http://www.w3.org/2000/svg">
<path d="M15 3.33366H14.1667V2.50033C14.1667 2.27931 14.0789 2.06735 13.9226 1.91107C13.7663 1.75479 13.5543 1.66699 13.3333 1.66699C13.1123 1.66699 12.9004 1.75479 12.7441 1.91107C12.5878 2.06735 12.5 2.27931 12.5 2.50033V3.33366H7.5V2.50033C7.5 2.27931 7.4122 2.06735 7.25592 1.91107C7.09964 1.75479 6.88768 1.66699 6.66667 1.66699C6.44565 1.66699 6.23369 1.75479 6.07741 1.91107C5.92113 2.06735 5.83333 2.27931 5.83333 2.50033V3.33366H5C4.33696 3.33366 3.70107 3.59705 3.23223 4.06589C2.76339 4.53473 2.5 5.17062 2.5 5.83366V15.8337C2.5 16.4967 2.76339 17.1326 3.23223 17.6014C3.70107 18.0703 4.33696 18.3337 5 18.3337H15C15.663 18.3337 16.2989 18.0703 16.7678 17.6014C17.2366 17.1326 17.5 16.4967 17.5 15.8337V5.83366C17.5 5.17062 17.2366 4.53473 16.7678 4.06589C16.2989 3.59705 15.663 3.33366 15 3.33366ZM5 5.00033H5.83333V5.83366C5.83333 6.05467 5.92113 6.26663 6.07741 6.42291C6.23369 6.5792 6.44565 6.66699 6.66667 6.66699C6.88768 6.66699 7.09964 6.5792 7.25592 6.42291C7.4122 6.26663 7.5 6.05467 7.5 5.83366V5.00033H12.5V5.83366C12.5 6.05467 12.5878 6.26663 12.7441 6.42291C12.9004 6.5792 13.1123 6.66699 13.3333 6.66699C13.5543 6.66699 13.7663 6.5792 13.9226 6.42291C14.0789 6.26663 14.1667 6.05467 14.1667 5.83366V5.00033H15C15.221 5.00033 15.433 5.08812 15.5893 5.2444C15.7455 5.40068 15.8333 5.61265 15.8333 5.83366V9.16699H4.16667V5.83366C4.16667 5.61265 4.25446 5.40068 4.41074 5.2444C4.56702 5.08812 4.77899 5.00033 5 5.00033ZM15 16.667H5C4.77899 16.667 4.56702 16.5792 4.41074 16.4229C4.25446 16.2666 4.16667 16.0547 4.16667 15.8337V10.8337H15.8333V15.8337C15.8333 16.0547 15.7455 16.2666 15.5893 16.4229C15.433 16.5792 15.221 16.667 15 16.667Z" fill="#5B6582"/>
<path d="M6.66536 14.1667C7.1256 14.1667 7.4987 13.7936 7.4987 13.3333C7.4987 12.8731 7.1256 12.5 6.66536 12.5C6.20513 12.5 5.83203 12.8731 5.83203 13.3333C5.83203 13.7936 6.20513 14.1667 6.66536 14.1667Z" fill="#5B6582"/>
<path d="M13.3346 12.5H10.0013C9.78029 12.5 9.56833 12.5878 9.41205 12.7441C9.25577 12.9004 9.16797 13.1123 9.16797 13.3333C9.16797 13.5543 9.25577 13.7663 9.41205 13.9226C9.56833 14.0789 9.78029 14.1667 10.0013 14.1667H13.3346C13.5556 14.1667 13.7676 14.0789 13.9239 13.9226C14.0802 13.7663 14.168 13.5543 14.168 13.3333C14.168 13.1123 14.0802 12.9004 13.9239 12.7441C13.7676 12.5878 13.5556 12.5 13.3346 12.5Z" fill="#5B6582"/>
</svg>
