<svg width="20" height="20" viewBox="0 0 20 20" fill="none" xmlns="http://www.w3.org/2000/svg">
<path d="M10.0013 1.66699C8.35313 1.66699 6.74196 2.15573 5.37155 3.07141C4.00114 3.98709 2.93304 5.28858 2.30231 6.8113C1.67158 8.33401 1.50655 10.0096 1.8281 11.6261C2.14964 13.2426 2.94331 14.7274 4.10875 15.8929C5.27419 17.0583 6.75905 17.852 8.37555 18.1735C9.99206 18.4951 11.6676 18.3301 13.1903 17.6993C14.7131 17.0686 16.0145 16.0005 16.9302 14.6301C17.8459 13.2597 18.3346 11.6485 18.3346 10.0003C18.3346 8.90598 18.1191 7.82234 17.7003 6.8113C17.2815 5.80025 16.6677 4.88159 15.8939 4.10777C15.12 3.33395 14.2014 2.72012 13.1903 2.30133C12.1793 1.88254 11.0957 1.66699 10.0013 1.66699ZM10.0013 16.667C8.68276 16.667 7.39383 16.276 6.2975 15.5435C5.20118 14.8109 4.34669 13.7697 3.84211 12.5515C3.33752 11.3334 3.2055 9.99293 3.46274 8.69972C3.71997 7.40652 4.35491 6.21863 5.28726 5.28628C6.21961 4.35393 7.4075 3.71899 8.7007 3.46176C9.99391 3.20452 11.3344 3.33654 12.5525 3.84113C13.7707 4.34571 14.8119 5.2002 15.5444 6.29652C16.277 7.39285 16.668 8.68178 16.668 10.0003C16.668 11.7684 15.9656 13.4641 14.7154 14.7144C13.4651 15.9646 11.7694 16.667 10.0013 16.667Z" fill="#2779E2"/>
<path d="M12.251 6.99116L9.10097 11.1578L7.74264 9.3995C7.60671 9.2249 7.407 9.11144 7.18742 9.08409C6.96785 9.05674 6.74641 9.11774 6.5718 9.25366C6.3972 9.38959 6.28375 9.5893 6.2564 9.80888C6.22905 10.0285 6.29005 10.2499 6.42597 10.4245L8.45097 13.0162C8.52945 13.1155 8.62952 13.1956 8.74359 13.2505C8.85766 13.3053 8.98273 13.3335 9.1093 13.3328C9.23657 13.3325 9.36207 13.3031 9.47619 13.2467C9.59031 13.1904 9.69001 13.1087 9.76764 13.0078L13.576 8.00783C13.7108 7.83102 13.7698 7.60789 13.7402 7.38754C13.7105 7.16718 13.5944 6.96765 13.4176 6.83283C13.2408 6.69801 13.0177 6.63895 12.7973 6.66865C12.577 6.69834 12.3775 6.81435 12.2426 6.99116H12.251Z" fill="#2779E2"/>
</svg>
