<svg width="20" height="20" viewBox="0 0 20 20" fill="none" xmlns="http://www.w3.org/2000/svg">
<path d="M15 4.16699V3.33366C15 2.89163 14.8244 2.46771 14.5118 2.15515C14.1993 1.84259 13.7754 1.66699 13.3333 1.66699H6.66667C6.22464 1.66699 5.80072 1.84259 5.48816 2.15515C5.17559 2.46771 5 2.89163 5 3.33366V4.16699C4.33696 4.16699 3.70107 4.43038 3.23223 4.89923C2.76339 5.36807 2.5 6.00395 2.5 6.66699V15.8337C2.5 16.4967 2.76339 17.1326 3.23223 17.6014C3.70107 18.0703 4.33696 18.3337 5 18.3337H15C15.663 18.3337 16.2989 18.0703 16.7678 17.6014C17.2366 17.1326 17.5 16.4967 17.5 15.8337V6.66699C17.5 6.00395 17.2366 5.36807 16.7678 4.89923C16.2989 4.43038 15.663 4.16699 15 4.16699ZM6.66667 3.33366H13.3333V6.66699H6.66667V3.33366ZM15.8333 15.8337C15.8333 16.0547 15.7455 16.2666 15.5893 16.4229C15.433 16.5792 15.221 16.667 15 16.667H5C4.77899 16.667 4.56702 16.5792 4.41074 16.4229C4.25446 16.2666 4.16667 16.0547 4.16667 15.8337V6.66699C4.16667 6.44598 4.25446 6.23402 4.41074 6.07774C4.56702 5.92146 4.77899 5.83366 5 5.83366V6.66699C5 7.10902 5.17559 7.53294 5.48816 7.8455C5.80072 8.15806 6.22464 8.33366 6.66667 8.33366H13.3333C13.7754 8.33366 14.1993 8.15806 14.5118 7.8455C14.8244 7.53294 15 7.10902 15 6.66699V5.83366C15.221 5.83366 15.433 5.92146 15.5893 6.07774C15.7455 6.23402 15.8333 6.44598 15.8333 6.66699V15.8337Z" fill="#5B6582"/>
</svg>
