<svg width="20" height="20" viewBox="0 0 20 20" fill="none" xmlns="http://www.w3.org/2000/svg">
<path d="M16.25 17.0833H3.74996C3.20547 17.09 2.68051 16.8807 2.29004 16.5011C1.89957 16.1216 1.6754 15.6028 1.66663 15.0583V4.94166C1.6754 4.3972 1.89957 3.8784 2.29004 3.49886C2.68051 3.11932 3.20547 2.90997 3.74996 2.91666H7.58329C7.70638 2.91747 7.82776 2.94555 7.93871 2.99886C8.04966 3.05217 8.14741 3.1294 8.22496 3.22499L10.3916 5.87499H16.225C16.4967 5.86836 16.767 5.91559 17.0203 6.01398C17.2737 6.11236 17.505 6.25994 17.701 6.44821C17.8971 6.63647 18.0538 6.86169 18.1624 7.11087C18.2709 7.36005 18.329 7.62825 18.3333 7.89999V15.0583C18.3245 15.6028 18.1003 16.1216 17.7099 16.5011C17.3194 16.8807 16.7945 17.09 16.25 17.0833ZM3.33329 11.4667V15.0583C3.33643 15.1095 3.34979 15.1594 3.37257 15.2053C3.39536 15.2512 3.42711 15.2921 3.46596 15.3255C3.5048 15.3589 3.54995 15.3842 3.59873 15.3998C3.64751 15.4155 3.69893 15.4212 3.74996 15.4167H16.25C16.301 15.4212 16.3524 15.4155 16.4012 15.3998C16.45 15.3842 16.4951 15.3589 16.534 15.3255C16.5728 15.2921 16.6046 15.2512 16.6273 15.2053C16.6501 15.1594 16.6635 15.1095 16.6666 15.0583V7.89999C16.6635 7.84886 16.6501 7.79887 16.6273 7.75298C16.6046 7.7071 16.5728 7.66624 16.534 7.63284C16.4951 7.59943 16.45 7.57415 16.4012 7.55849C16.3524 7.54283 16.301 7.53711 16.25 7.54166H9.99996C9.87687 7.54085 9.75549 7.51277 9.64454 7.45946C9.5336 7.40615 9.43584 7.32892 9.35829 7.23333L7.19163 4.58333H3.74996C3.69893 4.57877 3.64751 4.5845 3.59873 4.60016C3.54995 4.61582 3.5048 4.6411 3.46596 4.67451C3.42711 4.70791 3.39536 4.74876 3.37257 4.79465C3.34979 4.84054 3.33643 4.89052 3.33329 4.94166V11.4667Z" fill="#859097"/>
</svg>
