<svg width="20" height="20" viewBox="0 0 20 20" fill="none" xmlns="http://www.w3.org/2000/svg">
<path d="M7.5 2.5H4.16667C3.72464 2.5 3.30072 2.67559 2.98816 2.98816C2.67559 3.30072 2.5 3.72464 2.5 4.16667V7.5C2.5 7.94203 2.67559 8.36595 2.98816 8.67851C3.30072 8.99107 3.72464 9.16667 4.16667 9.16667H7.5C7.94203 9.16667 8.36595 8.99107 8.67851 8.67851C8.99107 8.36595 9.16667 7.94203 9.16667 7.5V4.16667C9.16667 3.72464 8.99107 3.30072 8.67851 2.98816C8.36595 2.67559 7.94203 2.5 7.5 2.5ZM4.16667 7.5V4.16667H7.5V7.5H4.16667Z" fill="#859097"/>
<path d="M15.8334 2.5H12.5C12.058 2.5 11.6341 2.67559 11.3215 2.98816C11.009 3.30072 10.8334 3.72464 10.8334 4.16667V7.5C10.8334 7.94203 11.009 8.36595 11.3215 8.67851C11.6341 8.99107 12.058 9.16667 12.5 9.16667H15.8334C16.2754 9.16667 16.6993 8.99107 17.0119 8.67851C17.3244 8.36595 17.5 7.94203 17.5 7.5V4.16667C17.5 3.72464 17.3244 3.30072 17.0119 2.98816C16.6993 2.67559 16.2754 2.5 15.8334 2.5ZM12.5 7.5V4.16667H15.8334V7.5H12.5Z" fill="#859097"/>
<path d="M7.5 10.8333H4.16667C3.72464 10.8333 3.30072 11.0088 2.98816 11.3214C2.67559 11.634 2.5 12.0579 2.5 12.4999V15.8333C2.5 16.2753 2.67559 16.6992 2.98816 17.0118C3.30072 17.3243 3.72464 17.4999 4.16667 17.4999H7.5C7.94203 17.4999 8.36595 17.3243 8.67851 17.0118C8.99107 16.6992 9.16667 16.2753 9.16667 15.8333V12.4999C9.16667 12.0579 8.99107 11.634 8.67851 11.3214C8.36595 11.0088 7.94203 10.8333 7.5 10.8333ZM4.16667 15.8333V12.4999H7.5V15.8333H4.16667Z" fill="#859097"/>
<path d="M15.8334 10.8333H12.5C12.058 10.8333 11.6341 11.0088 11.3215 11.3214C11.009 11.634 10.8334 12.0579 10.8334 12.4999V15.8333C10.8334 16.2753 11.009 16.6992 11.3215 17.0118C11.6341 17.3243 12.058 17.4999 12.5 17.4999H15.8334C16.2754 17.4999 16.6993 17.3243 17.0119 17.0118C17.3244 16.6992 17.5 16.2753 17.5 15.8333V12.4999C17.5 12.0579 17.3244 11.634 17.0119 11.3214C16.6993 11.0088 16.2754 10.8333 15.8334 10.8333ZM12.5 15.8333V12.4999H15.8334V15.8333H12.5Z" fill="#859097"/>
</svg>
