<svg width="20" height="20" viewBox="0 0 20 20" fill="none" xmlns="http://www.w3.org/2000/svg">
<path d="M5.8335 4.99992C6.05451 4.99992 6.26647 4.91212 6.42275 4.75584C6.57903 4.59956 6.66683 4.3876 6.66683 4.16659C6.66683 3.94557 6.57903 3.73361 6.42275 3.57733C6.26647 3.42105 6.05451 3.33325 5.8335 3.33325H4.16683C3.94582 3.33325 3.73385 3.42105 3.57757 3.57733C3.42129 3.73361 3.3335 3.94557 3.3335 4.16659V15.8333C3.3335 16.0543 3.42129 16.2662 3.57757 16.4225C3.73385 16.5788 3.94582 16.6666 4.16683 16.6666H5.8335C6.05451 16.6666 6.26647 16.5788 6.42275 16.4225C6.57903 16.2662 6.66683 16.0543 6.66683 15.8333C6.66683 15.6122 6.57903 15.4003 6.42275 15.244C6.26647 15.0877 6.05451 14.9999 5.8335 14.9999H5.00016V4.99992H5.8335Z" fill="#859097"/>
<path d="M17.35 9.51679L15 6.18346C14.8726 6.0038 14.6792 5.88191 14.4621 5.84443C14.245 5.80695 14.022 5.85694 13.8417 5.98346C13.7515 6.04661 13.6748 6.12699 13.6159 6.21996C13.557 6.31293 13.5171 6.41664 13.4985 6.52511C13.4799 6.63358 13.483 6.74466 13.5076 6.85193C13.5321 6.95921 13.5777 7.06055 13.6417 7.15012L15.075 9.16679H8.33333C8.11232 9.16679 7.90036 9.25459 7.74408 9.41087C7.5878 9.56715 7.5 9.77911 7.5 10.0001C7.5 10.2211 7.5878 10.4331 7.74408 10.5894C7.90036 10.7457 8.11232 10.8335 8.33333 10.8335H15L13.5 12.8335C13.4343 12.921 13.3866 13.0206 13.3594 13.1266C13.3322 13.2326 13.3262 13.343 13.3417 13.4513C13.3572 13.5596 13.3938 13.6639 13.4496 13.758C13.5054 13.8522 13.5791 13.9345 13.6667 14.0001C13.8109 14.1083 13.9864 14.1668 14.1667 14.1668C14.296 14.1668 14.4236 14.1367 14.5393 14.0788C14.6551 14.021 14.7557 13.937 14.8333 13.8335L17.3333 10.5001C17.4401 10.3592 17.4992 10.1879 17.5022 10.0112C17.5052 9.83441 17.4519 9.66127 17.35 9.51679Z" fill="#859097"/>
</svg>
