<svg width="20" height="20" viewBox="0 0 20 20" fill="none" xmlns="http://www.w3.org/2000/svg">
<path d="M10.0013 10.8337C10.4615 10.8337 10.8346 10.4606 10.8346 10.0003C10.8346 9.54009 10.4615 9.16699 10.0013 9.16699C9.54106 9.16699 9.16797 9.54009 9.16797 10.0003C9.16797 10.4606 9.54106 10.8337 10.0013 10.8337Z" fill="#5B6582"/>
<path d="M13.3333 10.8337C13.7936 10.8337 14.1667 10.4606 14.1667 10.0003C14.1667 9.54009 13.7936 9.16699 13.3333 9.16699C12.8731 9.16699 12.5 9.54009 12.5 10.0003C12.5 10.4606 12.8731 10.8337 13.3333 10.8337Z" fill="#5B6582"/>
<path d="M6.66536 10.8337C7.1256 10.8337 7.4987 10.4606 7.4987 10.0003C7.4987 9.54009 7.1256 9.16699 6.66536 9.16699C6.20513 9.16699 5.83203 9.54009 5.83203 10.0003C5.83203 10.4606 6.20513 10.8337 6.66536 10.8337Z" fill="#5B6582"/>
<path d="M15.8935 4.10843C14.5262 2.73218 12.7215 1.87611 10.7907 1.6878C8.85981 1.49949 6.92376 1.99075 5.3163 3.07688C3.70883 4.163 2.53067 5.77594 1.98494 7.63761C1.43922 9.49928 1.56012 11.493 2.32681 13.2751C2.40672 13.4407 2.43294 13.6272 2.40181 13.8084L1.66847 17.3334C1.64022 17.4686 1.64599 17.6086 1.68526 17.741C1.72454 17.8734 1.79608 17.9939 1.89347 18.0918C1.97331 18.171 2.06837 18.2333 2.17292 18.2748C2.27747 18.3164 2.38935 18.3363 2.50181 18.3334H2.66847L6.23514 17.6168C6.41642 17.595 6.60024 17.6208 6.76847 17.6918C8.55056 18.4585 10.5443 18.5794 12.406 18.0336C14.2676 17.4879 15.8806 16.3097 16.9667 14.7023C18.0528 13.0948 18.5441 11.1588 18.3558 9.22792C18.1675 7.29707 17.3114 5.49242 15.9351 4.1251L15.8935 4.10843ZM16.5851 11.0751C16.4222 12.0701 16.0357 13.0152 15.4548 13.8392C14.8738 14.6632 14.1135 15.3447 13.2311 15.8325C12.3487 16.3202 11.3671 16.6014 10.3603 16.655C9.35351 16.7086 8.34766 16.5331 7.41847 16.1418C7.08893 16.0016 6.73492 15.928 6.37681 15.9251C6.22037 15.9262 6.06429 15.9401 5.91014 15.9668L3.56014 16.4418L4.03514 14.0918C4.12975 13.5828 4.06876 13.0572 3.86014 12.5834C3.4688 11.6542 3.29331 10.6484 3.34688 9.64158C3.40046 8.63477 3.68169 7.65322 4.16943 6.77081C4.65716 5.88839 5.33869 5.1281 6.16272 4.54714C6.98675 3.96618 7.93182 3.5797 8.92681 3.41677C9.9712 3.24536 11.0414 3.32508 12.0489 3.64932C13.0563 3.97356 13.9721 4.533 14.7205 5.28138C15.4689 6.02976 16.0284 6.94556 16.3526 7.95303C16.6768 8.96051 16.7565 10.0307 16.5851 11.0751Z" fill="#5B6582"/>
</svg>
