<svg width="20" height="20" viewBox="0 0 20 20" fill="none" xmlns="http://www.w3.org/2000/svg">
<path d="M7.49996 9.16667C8.15923 9.16667 8.8037 8.97117 9.35186 8.6049C9.90002 8.23863 10.3273 7.71803 10.5796 7.10895C10.8319 6.49986 10.8979 5.82964 10.7692 5.18303C10.6406 4.53643 10.3232 3.94249 9.85698 3.47631C9.39081 3.01014 8.79686 2.69267 8.15026 2.56405C7.50366 2.43543 6.83344 2.50144 6.22435 2.75374C5.61526 3.00603 5.09467 3.43327 4.72839 3.98143C4.36212 4.5296 4.16663 5.17406 4.16663 5.83333C4.16663 6.71739 4.51782 7.56524 5.14294 8.19036C5.76806 8.81548 6.6159 9.16667 7.49996 9.16667ZM7.49996 4.16667C7.8296 4.16667 8.15183 4.26442 8.42591 4.44755C8.69999 4.63069 8.91361 4.89099 9.03976 5.19553C9.1659 5.50007 9.19891 5.83518 9.1346 6.15849C9.07029 6.48179 8.91156 6.77876 8.67847 7.01185C8.44538 7.24493 8.14841 7.40367 7.82511 7.46798C7.50181 7.53229 7.1667 7.49928 6.86215 7.37313C6.55761 7.24699 6.29731 7.03337 6.11418 6.75928C5.93104 6.4852 5.83329 6.16297 5.83329 5.83333C5.83329 5.39131 6.00889 4.96738 6.32145 4.65482C6.63401 4.34226 7.05793 4.16667 7.49996 4.16667Z" fill="white"/>
<path d="M14.1666 10.8333C14.6611 10.8333 15.1444 10.6866 15.5556 10.4119C15.9667 10.1372 16.2871 9.74678 16.4763 9.28996C16.6655 8.83315 16.7151 8.33048 16.6186 7.84553C16.5221 7.36057 16.284 6.91512 15.9344 6.56549C15.5848 6.21585 15.1393 5.97775 14.6544 5.88129C14.1694 5.78483 13.6667 5.83434 13.2099 6.02355C12.7531 6.21277 12.3627 6.5332 12.088 6.94433C11.8132 7.35545 11.6666 7.8388 11.6666 8.33325C11.6666 8.99629 11.93 9.63218 12.3989 10.101C12.8677 10.5699 13.5036 10.8333 14.1666 10.8333ZM14.1666 7.49992C14.3314 7.49992 14.4926 7.54879 14.6296 7.64036C14.7666 7.73193 14.8735 7.86208 14.9365 8.01435C14.9996 8.16662 15.0161 8.33418 14.9839 8.49583C14.9518 8.65748 14.8724 8.80597 14.7559 8.92251C14.6393 9.03905 14.4909 9.11842 14.3292 9.15057C14.1676 9.18273 14 9.16623 13.8477 9.10315C13.6955 9.04008 13.5653 8.93327 13.4737 8.79623C13.3822 8.65919 13.3333 8.49807 13.3333 8.33325C13.3333 8.11224 13.4211 7.90028 13.5774 7.744C13.7337 7.58772 13.9456 7.49992 14.1666 7.49992Z" fill="white"/>
<path d="M14.1666 11.6668C13.2431 11.6678 12.3462 11.9756 11.6166 12.5418C10.8004 11.7287 9.76167 11.1756 8.63148 10.9521C7.50129 10.7286 6.33023 10.8448 5.26598 11.286C4.20174 11.7272 3.29197 12.4737 2.65141 13.4313C2.01085 14.3889 1.66818 15.5147 1.66663 16.6668C1.66663 16.8878 1.75442 17.0997 1.9107 17.256C2.06698 17.4123 2.27895 17.5001 2.49996 17.5001C2.72097 17.5001 2.93293 17.4123 3.08922 17.256C3.2455 17.0997 3.33329 16.8878 3.33329 16.6668C3.33329 15.5617 3.77228 14.5019 4.55368 13.7205C5.33508 12.9391 6.39489 12.5001 7.49996 12.5001C8.60503 12.5001 9.66484 12.9391 10.4462 13.7205C11.2276 14.5019 11.6666 15.5617 11.6666 16.6668C11.6666 16.8878 11.7544 17.0997 11.9107 17.256C12.067 17.4123 12.2789 17.5001 12.5 17.5001C12.721 17.5001 12.9329 17.4123 13.0892 17.256C13.2455 17.0997 13.3333 16.8878 13.3333 16.6668C13.3353 15.6904 13.0886 14.7297 12.6166 13.8751C12.9849 13.5841 13.4277 13.4026 13.8942 13.3515C14.3608 13.3003 14.8324 13.3816 15.2549 13.5859C15.6775 13.7902 16.034 14.1094 16.2837 14.5069C16.5333 14.9043 16.666 15.364 16.6666 15.8334C16.6666 16.0544 16.7544 16.2664 16.9107 16.4227C17.067 16.579 17.2789 16.6668 17.5 16.6668C17.721 16.6668 17.9329 16.579 18.0892 16.4227C18.2455 16.2664 18.3333 16.0544 18.3333 15.8334C18.3333 14.7284 17.8943 13.6685 17.1129 12.8871C16.3315 12.1057 15.2717 11.6668 14.1666 11.6668Z" fill="white"/>
</svg>
