<svg width="20" height="20" viewBox="0 0 20 20" fill="none" xmlns="http://www.w3.org/2000/svg">
<path d="M9.99984 1.66675C8.35166 1.66675 6.7405 2.15549 5.37009 3.07117C3.99968 3.98685 2.93158 5.28834 2.30084 6.81105C1.67011 8.33377 1.50509 10.0093 1.82663 11.6258C2.14817 13.2423 2.94185 14.7272 4.10728 15.8926C5.27272 17.0581 6.75758 17.8517 8.37409 18.1733C9.9906 18.4948 11.6662 18.3298 13.1889 17.6991C14.7116 17.0683 16.0131 16.0002 16.9288 14.6298C17.8444 13.2594 18.3332 11.6483 18.3332 10.0001C18.3332 8.90573 18.1176 7.8221 17.6988 6.81105C17.28 5.80001 16.6662 4.88135 15.8924 4.10752C15.1186 3.3337 14.1999 2.71987 13.1889 2.30109C12.1778 1.8823 11.0942 1.66675 9.99984 1.66675ZM9.99984 16.6667C8.6813 16.6667 7.39237 16.2758 6.29604 15.5432C5.19971 14.8107 4.34523 13.7695 3.84064 12.5513C3.33606 11.3331 3.20404 9.99269 3.46127 8.69948C3.71851 7.40627 4.35345 6.21839 5.2858 5.28604C6.21815 4.35369 7.40603 3.71875 8.69924 3.46151C9.99245 3.20428 11.3329 3.3363 12.5511 3.84088C13.7692 4.34547 14.8104 5.19995 15.543 6.29628C16.2755 7.39261 16.6665 8.68154 16.6665 10.0001C16.6665 11.7682 15.9641 13.4639 14.7139 14.7141C13.4636 15.9644 11.768 16.6667 9.99984 16.6667Z" fill="#859097"/>
<path d="M10.0002 5.00006C9.22661 5.00006 8.48475 5.30735 7.93777 5.85433C7.39079 6.40131 7.0835 7.14318 7.0835 7.91672C7.0835 8.13774 7.17129 8.3497 7.32757 8.50598C7.48385 8.66226 7.69582 8.75006 7.91683 8.75006C8.13784 8.75006 8.3498 8.66226 8.50608 8.50598C8.66237 8.3497 8.75016 8.13774 8.75016 7.91672C8.75016 7.6695 8.82347 7.42782 8.96083 7.22226C9.09818 7.0167 9.2934 6.85648 9.52181 6.76187C9.75022 6.66726 10.0015 6.64251 10.244 6.69074C10.4865 6.73897 10.7092 6.85802 10.884 7.03284C11.0589 7.20766 11.1779 7.43038 11.2261 7.67286C11.2744 7.91534 11.2496 8.16667 11.155 8.39508C11.0604 8.62349 10.9002 8.81871 10.6946 8.95606C10.4891 9.09341 10.2474 9.16672 10.0002 9.16672C9.77915 9.16672 9.56719 9.25452 9.41091 9.4108C9.25463 9.56708 9.16683 9.77904 9.16683 10.0001V11.6667C9.16683 11.8877 9.25463 12.0997 9.41091 12.256C9.56719 12.4123 9.77915 12.5001 10.0002 12.5001C10.2212 12.5001 10.4331 12.4123 10.5894 12.256C10.7457 12.0997 10.8335 11.8877 10.8335 11.6667V10.7001C11.5069 10.5034 12.0866 10.0699 12.4656 9.47959C12.8446 8.88924 12.9974 8.18178 12.896 7.48761C12.7945 6.79344 12.4455 6.15935 11.9133 5.70221C11.3812 5.24508 10.7017 4.9957 10.0002 5.00006Z" fill="#859097"/>
<path d="M9.99984 14.9999C10.4601 14.9999 10.8332 14.6268 10.8332 14.1666C10.8332 13.7063 10.4601 13.3333 9.99984 13.3333C9.5396 13.3333 9.1665 13.7063 9.1665 14.1666C9.1665 14.6268 9.5396 14.9999 9.99984 14.9999Z" fill="#859097"/>
</svg>
